{"title":"Singh Is Bling(2015) DVDScr X264 {VikkyMaxx}","uid":12519110,"size":744510498,"categoryP":"video","categoryS":"movies","magnet":"?xt=urn:btih:fbf360e19c00ea7168776bacc770ab2ab39fbf02&amp;dn=Singh+Is+Bling%282015%29+DVDScr+X264+%7BVikkyMaxx%7D&amp;tr=udp%3A%2F%2Ftracker.leechers-paradise.org%3A6969&amp;tr=udp%3A%2F%2Fzer0day.ch%3A1337&amp;tr=udp%3A%2F%2Fopen.demonii.com%3A1337&amp;tr=udp%3A%2F%2Ftracker.coppersurfer.tk%3A6969&amp;tr=udp%3A%2F%2Fexodus.desync.com%3A6969","seeders":2,"leechers":0,"uploader":"shailendramaxx","files":22,"time":1443826618,"description":"VikkyMaxx Presents :-\r\n\r\nSingh Is Bling(2015) DVDScr X264 {VikkyMaxx}\r\n\r\n\r\nIMDB :- http://www.imdb.com/title/tt3696192\r\n\r\nRatings :- 8.3/10\r\n\r\nPlot :- Raftaar Singh (Akshay) spends his days whiling his time away dancing and jumping through fire hula-hoops at fairs in Bassi Pathana in Punjab. While his father (Yograj Singh) is tired of his ways, his mother (Rati Agnihotri) caters to his appetite with home-cooked jalebis, before the former asks Raftaar to choose a path for himself. Either get married to a certain Sweety, or move to Goa and work under his father's friend. Considering the first option unimaginable, Raftaar chooses the second.\r\n\r\nCast :- Akshay Kumar, Amy Jackson, Kay Kay Menon\r\n\r\nGeneral:-\r\n \r\nComplete name :Singh Is Bling(2015) DVDScr {vikkyMaxx}\r\nFormat : MPEG-4 \r\nFormat profile : Base Media \r\nCodec ID : isom \r\nFile size : 701 MiB \r\nDuration : 2h 53mn \r\nOverall bit rate : 563 Kbps \r\nEncoded date : UTC 2015-10-02 20:23:58 \r\nTagged date : UTC 2015-10-02 20:23:58 \r\nSource : Desi Rocker (A Big Thanks)\r\nVideo:-\r\n \r\nID : 1 \r\nFormat : AVC \r\nFormat/Info : Advanced Video Codec \r\nFormat profile :    \r\nFormat settings, CABAC : Yes \r\nFormat settings, ReFrames : 4 frames \r\nCodec ID : avc1 \r\nCodec ID/Info : Advanced Video Coding \r\nDuration : 2h 46mn \r\nBit rate : 117 Kbps \r\nMaximum bit rate : 536 Kbps \r\nWidth : 704 pixels \r\nHeight : 312 pixels \r\nDisplay aspect ratio : 2.25:1 \r\nFrame rate mode : Constant \r\nFrame rate : 25.000 fps \r\nColor space : YUV \r\nChroma subsampling : 4:2:0 \r\nBit depth : 8 bits \r\nScan type : Progressive \r\nBits/(Pixel*Frame) : 0.021 \r\nStream size : 140 MiB (20%) \r\nWriting library : x264 core 146 r2538 121396c \r\nEncoding settings : cabac=1 / ref=3 / deblock=1:0:0\r\nEncoded date : UTC 2015-10-02 20:23:58 \r\nTagged date : UTC 2015-10-02 20:24:51 \r\n\r\nAudio:-\r\n \r\nID : 2 \r\nFormat : AC-3 \r\nFormat/Info : Audio Coding 3 \r\nMode extension : CM (complete main) \r\nFormat settings, Endianness : Big \r\nCodec ID : ac-3 \r\nDuration : 2h 53mn \r\nBit rate mode : Constant \r\nBit rate : 448 Kbps \r\nChannel(s) : 2 channels \r\nChannel positions : Front: L R \r\nSampling rate : 44.1 KHz \r\nBit depth : 16 bits \r\nCompression mode : Lossy \r\nStream size : 557 MiB (80%) \r\nEncoded date : UTC 2015-10-02 20:24:16 \r\nTagged date : UTC 2015-10-02 20:24:51 \r\nLanguage : Hindi\r\n\r\n\r\nSCREENS :-\r\n \nhttp://i.imgur.com/Gs89Nam.png\r\n \nhttp://i.imgur.com/T5QhUqT.png\r\n \nhttp://i.imgur.com/KNYhxRQ.png\r\n \nhttp://i.imgur.com/dJtJ2kl.png\r\n \nhttp://i.imgur.com/Tz6Ph7j.png\r\n \nhttp://i.imgur.com/Rh5lO3C.png\r\n \nhttp://i.imgur.com/UAGrErK.png\r\n \nhttp://i.imgur.com/ahbZWnL.png\r\n \nhttp://i.imgur.com/oyXRZTo.png\r\n\r\n\r\n\r\n\r\n                                                \r\n              ********** PLEASE SEED AS LONG AS YOU CAN AFTER DOWNLOAD **********\r\n                       \r\n                              ***** THANK YOU REGARDS - VikkyMaxx *****","torrent":{"xt":"urn:btih:fbf360e19c00ea7168776bacc770ab2ab39fbf02","amp;dn":"Singh+Is+Bling%282015%29+DVDScr+X264+%7BVikkyMaxx%7D","amp;tr":["udp%3A%2F%2Ftracker.leechers-paradise.org%3A6969","udp%3A%2F%2Fzer0day.ch%3A1337","udp%3A%2F%2Fopen.demonii.com%3A1337","udp%3A%2F%2Ftracker.coppersurfer.tk%3A6969","udp%3A%2F%2Fexodus.desync.com%3A6969"],"infoHash":"fbf360e19c00ea7168776bacc770ab2ab39fbf02","infoHashBuffer":{"type":"Buffer","data":[251,243,96,225,156,0,234,113,104,119,107,172,199,112,171,42,179,159,191,2]},"announce":[],"urlList":[]}}